<svg id="Icons" xmlns="http://www.w3.org/2000/svg" viewBox="0 0 128 128"><defs><style>.cls-1{fill:none;stroke:#fff;stroke-linecap:round;stroke-linejoin:round;stroke-width:2.5px;}.cls-2{fill:#fff;}</style></defs><title>ICON-FEATURE</title><path d="M110.52,101.06h-.06L92.69,99.48a.65.65,0,0,1-.59-.59l-.54-5.78-2.4-2.4-7.9-2.55a.65.65,0,0,1-.45-.61l-.07-5.31-2.18-2.18H73.4a.65.65,0,0,1-.65-.69l.39-7.51L70,68.78l-6.31,1.46a.65.65,0,0,1-.61-.17l-4.58-4.58A25.43,25.43,0,1,1,72.93,50.77L109,86.89a.65.65,0,0,1,.18.37l1.94,13.06a.65.65,0,0,1-.65.75Z"/><line class="cls-1" x1="68.25" y1="58.18" x2="110.56" y2="100.48"/><circle class="cls-2" cx="42.44" cy="35.22" r="7.67" transform="translate(-12.47 40.33) rotate(-45)"/></svg>