<svg id="Icons" xmlns="http://www.w3.org/2000/svg" viewBox="0 0 128 128"><defs><style>.cls-1{fill:#fff;}.cls-2,.cls-3,.cls-4{fill:none;}.cls-2,.cls-3{stroke:#fff;stroke-width:2.5px;}.cls-2,.cls-3,.cls-4,.cls-5{stroke-linecap:round;}.cls-2{stroke-miterlimit:10;}.cls-3,.cls-4,.cls-5{stroke-linejoin:round;}.cls-4,.cls-5{stroke:#000;stroke-width:1.5px;}</style></defs><title>ICON-FEATURE</title><rect x="16" y="30.03" width="96" height="17.14" rx="3.43" ry="3.43"/><circle class="cls-1" cx="24.57" cy="38.6" r="1.71"/><line class="cls-2" x1="81.14" y1="33.46" x2="81.14" y2="43.74"/><path d="M108.48,71.17H83.79A15.82,15.82,0,0,1,84,88.31h24.61A3.43,3.43,0,0,0,112,84.89V74.69A3.52,3.52,0,0,0,108.48,71.17Z"/><path d="M54.63,79.88a15.8,15.8,0,0,1,2.61-8.71H19.43A3.43,3.43,0,0,0,16,74.6V84.89a3.43,3.43,0,0,0,3.43,3.43H57.07A15.79,15.79,0,0,1,54.63,79.88Z"/><path d="M108.57,50.6H19.43A3.43,3.43,0,0,0,16,54V64.31a3.43,3.43,0,0,0,3.43,3.43H60.29a15.86,15.86,0,0,1,20.46,0h27.82A3.43,3.43,0,0,0,112,64.31V54A3.43,3.43,0,0,0,108.57,50.6Z"/><path class="cls-3" d="M101.71,74.6v0Z"/><path class="cls-3" d="M91.43,74.6v0Z"/><circle class="cls-1" cx="24.57" cy="79.74" r="1.71"/><circle class="cls-1" cx="24.57" cy="59.17" r="1.71"/><path class="cls-3" d="M81.14,64.31v0Z"/><path class="cls-3" d="M91.43,64.31v0Z"/><path class="cls-3" d="M101.71,64.31v0Z"/><line class="cls-4" x1="80.14" y1="89.5" x2="82.81" y2="92.17"/><circle cx="70.52" cy="79.88" r="13.46"/><rect class="cls-5" x="79.87" y="97.26" width="20" height="4" rx="2" ry="2" transform="translate(96.51 -34.47) rotate(45)"/><circle class="cls-1" cx="24.57" cy="38.6" r="2.46"/><path class="cls-1" d="M24.57,36.88a1.71,1.71,0,1,1-1.71,1.71,1.71,1.71,0,0,1,1.71-1.71m0-1.5a3.21,3.21,0,1,0,3.21,3.21,3.22,3.22,0,0,0-3.21-3.21Z"/><path class="cls-3" d="M101.71,44.06v0Z"/><path class="cls-3" d="M92,44.06v0Z"/></svg>