<svg id="Icons" xmlns="http://www.w3.org/2000/svg" viewBox="0 0 128 128"><defs><style>.cls-1{fill:#fff;}.cls-2,.cls-3,.cls-4{fill:none;stroke-linecap:round;stroke-linejoin:round;}.cls-2,.cls-3{stroke:#000;}.cls-2{stroke-width:1.58px;}.cls-3{stroke-width:1.5px;}.cls-4{stroke:#fff;stroke-width:2px;}</style></defs><title>ICON-FEATURE</title><rect class="cls-1" x="17.39" y="84.25" width="94.5" height="10.46"/><path d="M111.14,85v9h-93V85h93m1.5-1.5h-96v12h96v-12Z"/><line id="_Path_" data-name="&lt;Path&gt;" class="cls-2" x1="64.68" y1="95.13" x2="64.68" y2="102.31"/><line id="_Path_2" data-name="&lt;Path&gt;" class="cls-3" x1="44.07" y1="102.31" x2="85.21" y2="102.31"/><circle cx="64.64" cy="89.48" r="2.15"/><rect x="16.64" y="30.28" width="96" height="54.33"/><path class="cls-4" d="M74.21,54.52,80.65,61a2.88,2.88,0,0,1,3.56-.44l9-15.67a3,3,0,0,1-1.07-1.05"/><path class="cls-4" d="M57.79,64.37,49.85,61.2a2.94,2.94,0,0,1-2.73,1.87,2.9,2.9,0,0,1-1.66-.52l-8.6,12.9a3,3,0,0,1,.89,1"/><path class="cls-4" d="M57.79,64.37l1.46.58A2.94,2.94,0,0,1,62,63.07a2.88,2.88,0,0,1,.91.16l.8-2.39"/><path class="cls-4" d="M74.21,54.52,70,50.31a2.92,2.92,0,0,1-2.07.87A2.89,2.89,0,0,1,67,51l-3.28,9.83"/><circle class="cls-1" cx="35.82" cy="75.35" r="3.94"/><circle class="cls-1" cx="47.33" cy="60.43" r="3.94"/><circle class="cls-1" cx="68.21" cy="48.44" r="3.94"/><circle class="cls-1" cx="61.73" cy="65.58" r="3.94"/><circle class="cls-1" cx="82.75" cy="62.9" r="3.94"/><circle class="cls-1" cx="94.38" cy="42.33" r="3.94"/></svg>